<?xml version="1.0" standalone="no"?>
<!DOCTYPE svg PUBLIC "-//W3C//DTD SVG 20010904//EN"
 "http://www.w3.org/TR/2001/REC-SVG-20010904/DTD/svg10.dtd">
<svg version="1.0" xmlns="http://www.w3.org/2000/svg"
 width="200.000000pt" height="200.000000pt" viewBox="0 0 200.000000 200.000000"
 preserveAspectRatio="xMidYMid meet">

<g transform="translate(0.000000,200.000000) scale(0.100000,-0.100000)"
fill="#000000" stroke="none">
<path d="M981 1820 c-173 -37 -318 -115 -442 -239 -47 -47 -91 -96 -98 -108
l-12 -23 331 0 330 0 0 171 0 172 73 -7 c185 -17 353 -93 485 -220 106 -102
162 -191 213 -341 21 -60 24 -89 24 -210 0 -118 -4 -152 -23 -215 -95 -307
-375 -532 -694 -557 l-78 -6 0 234 c0 225 -1 236 -24 284 -26 56 -81 117 -128
141 -43 22 -132 29 -202 14 -124 -25 -352 -164 -501 -304 -55 -53 -56 -54 -13
-23 215 158 360 186 460 90 56 -54 60 -147 9 -202 -30 -32 -100 -56 -134 -45
-19 6 -20 5 -8 -10 52 -62 215 -158 336 -196 98 -31 299 -39 410 -16 433 90
722 518 640 951 -57 305 -278 550 -580 645 -79 25 -296 36 -374 20z"/>
<path d="M1194 1737 c72 -38 213 -170 258 -238 l31 -49 109 0 c59 0 108 -4
108 -8 0 -4 -29 -43 -65 -86 -36 -43 -65 -85 -65 -95 1 -9 7 -41 14 -71 l12
-55 137 -3 c75 -1 137 -1 137 0 0 2 -9 37 -21 78 -75 271 -308 486 -591 545
-38 8 -81 15 -96 15 -23 0 -18 -6 32 -33z"/>
<path d="M1100 1605 l0 -155 180 0 c99 0 180 3 180 6 0 17 -67 98 -133 160
-68 65 -186 144 -215 144 -9 0 -12 -45 -12 -155z"/>
<path d="M346 1288 c-3 -13 -6 -26 -6 -30 0 -5 267 -8 593 -8 l594 0 21 23
c12 13 22 26 22 30 0 4 -274 7 -609 7 l-609 0 -6 -22z"/>
<path d="M1497 1190 l-48 -60 67 0 66 0 -6 30 c-3 17 -9 44 -12 60 -3 17 -9
30 -12 30 -4 0 -29 -27 -55 -60z"/>
<path d="M316 1178 c-3 -13 -6 -33 -6 -46 l0 -23 328 1 c368 1 397 -3 489 -66
46 -32 113 -112 113 -136 0 -5 54 57 120 137 66 80 120 147 120 150 0 3 -260
5 -579 5 l-579 0 -6 -22z"/>
<path d="M1363 1024 c-43 -52 -79 -100 -81 -105 -2 -5 57 -9 146 -9 147 0 150
0 156 23 8 29 8 116 0 156 l-6 31 -69 0 -68 0 -78 -96z"/>
<path d="M1603 1015 l0 -105 132 0 133 0 6 31 c9 47 7 124 -4 153 l-10 26
-129 0 -128 0 0 -105z"/>
<path d="M1181 803 c-44 -54 -77 -101 -75 -105 3 -4 99 -8 214 -8 l209 0 20
68 c11 37 22 84 26 105 l6 37 -160 0 -160 0 -80 -97z"/>
<path d="M1594 873 c-19 -84 -37 -150 -45 -165 -9 -17 -1 -18 120 -18 l131 0
18 38 c11 20 24 60 31 87 7 28 14 58 17 68 5 16 -6 17 -130 17 l-136 0 -6 -27z"/>
<path d="M1104 667 c-3 -8 -4 -54 -2 -103 l3 -89 142 -3 141 -3 35 43 c33 41
97 147 97 161 0 4 -92 7 -205 7 -162 0 -207 -3 -211 -13z"/>
<path d="M1516 633 c-13 -27 -40 -72 -60 -102 -20 -29 -36 -55 -36 -57 0 -2
50 -4 111 -4 l112 0 35 38 c37 38 112 149 112 164 0 4 -56 8 -125 8 l-125 0
-24 -47z"/>
<path d="M1107 453 c-9 -8 -9 -178 -1 -186 16 -15 180 91 243 157 l35 36 -135
0 c-75 0 -139 -3 -142 -7z"/>
<path d="M1360 414 c-38 -38 -131 -106 -206 -150 -14 -9 -3 -9 46 -3 75 11
148 31 217 60 53 22 203 119 203 131 0 5 -49 8 -108 8 l-108 0 -44 -46z"/>
</g>
</svg>
